<svg id="Layer_1" data-name="Layer 1" xmlns="http://www.w3.org/2000/svg" viewBox="0 0 1000 1000"><defs><style>.cls-1{fill:#feea3a;}.cls-2{fill:#231f20;}</style></defs><rect class="cls-1" width="1000" height="1000"/><path class="cls-2" d="M32.33,739.26c40.31,24.81,99.22,45.48,161.23,45.48,92,0,145.73-48.58,145.73-118.86,0-65.11-37.21-102.32-131.26-138.49-113.69-40.31-184-99.22-184-197.4,0-108.52,89.91-189.14,225.3-189.14,71.32,0,123,16.54,154,34.11l-24.81,73.38c-22.73-12.4-69.24-33.07-132.29-33.07C151.19,215.27,115,272.11,115,319.65c0,65.11,42.37,97.15,138.49,134.36,117.82,45.47,177.76,102.32,177.76,204.64,0,107.48-79.58,200.5-243.91,200.5-67.18,0-140.56-19.64-177.76-44.44Z"/><path class="cls-2" d="M686.55,228.7H474.68V152.22H990.4V228.7H777.5V848.81h-91Z"/></svg>